<?xml version="1.0" encoding="UTF-8"?>
<svg id="Camada_2" xmlns="http://www.w3.org/2000/svg" version="1.1" viewBox="0 0 507 426">
  <!-- Generator: Adobe Illustrator 30.3.0, SVG Export Plug-In . SVG Version: 2.1.3 Build 182)  -->
  <defs>
    <style>
      .st0 {
        fill: #fff;
      }
    </style>
  </defs>
  <path d="M158.4,29.85"/>
  <path class="st0" d="M237.3,267.65"/>
  <path class="st0" d="M232.5,242.9"/>
  <g>
    <path class="st0" d="M257.95,126.95c-.28,1.13-.51,1.74-.79,2.85,26.82-.5,51.58,12.59,62.63,45.75l1.8,6.3c9.99,41-7.49,81.41-33.27,104.03l4.42,3.08c38.13-29.99,53.59-85.08,31.32-128.18-9.28-17.97-24.63-30.33-43.71-36.45-5.42-1.74-9.46-2.88-14.84-3.66-1.52,3.77-4.56,6.3-7.57,6.3v-.02Z"/>
    <path class="st0" d="M238.13,304.81c-.74.02-14.8-1.66-14.4-1.5,4.48,1.75,9.66,2.76,15.09,3.14.26-.61.55-1.19.88-1.73l-1.57.1h0Z"/>
    <path class="st0" d="M200.09,144.12c-.24,2.26-.76,3.61-1.72,5.25l.75,2.4c14.4-12.33,31.85-19.9,50.78-21.56.45-2.03.88-3.9,1.35-6-.47-.19-1.03-.73-1.16-.9-.78-1-1.42-2.01-1.84-3.11-19,1.84-34.41,9.09-48.26,20.96,0,.68.19,2.27.11,2.96h-.01Z"/>
    <path class="st0" d="M169.75,201.27l.23-.6c.66-2.77,1.15-4.12,1.37-4.91.1-.35.19-.7.31-1.05l3.28-9.83c.53-1.58,1.2-3.1,2.01-4.55l4.8-8.55c.08-.19.18-.37.28-.55,2.88-4.84,5.63-8.51,9.66-12.68l-1.39-3.82c-.86.38-.86.34-1.73.26-.35-.03-.87-.66-1.2-.79-10.77,13.25-17.64,27.64-19.88,45.49.74.39,1.61.95,2.25,1.57h.01Z"/>
    <path class="st0" d="M255.67,303.41c.42.69.54,1.49.84,2.36,7.51-1.07,14.05-3.1,19.73-6.07,3.45-1.81,5.93-3.48,9.13-5.65l-3.52-2.92c-8.75,6.61-16.83,10.53-26.18,12.28h0Z"/>
    <path class="st0" d="M238.06,316.01c-1.23-.13-1.34-.17-2.58-.38-9.13-1.5-16.06-3.78-23.63-7.16.18,2.23-.08,4.56-.77,6.84,2.73,1.33,4.46,2.16,7.42,3.21,8.22,2.92,13.96,4.35,22.6,4.74-1.79-1.57-2.42-4.01-3.04-7.26h0Z"/>
    <g>
      <path class="st0" d="M297.68,304.7l-6.19-4.73c-10.24,8.32-20.71,13.07-33.41,15.3-.62,3.35-1.55,6.14-3.6,7.88,16.8-1.1,29.53-6.36,42.97-16.2-.08-.9.17-1.32.23-2.25Z"/>
      <path class="st0" d="M309.89,290.86c1.35.33,2.69.95,3.77,1.97,32.6-33.51,43.58-86.51,22.76-129.02-1.84-1.43-4.85-2.02-7.23-2.68,11.01,27.19,10.79,56.6.5,84.16-6.68,17.89-16.58,34.38-30.38,47.48l1.63.96c2.04-2.97,5.8-3.64,8.94-2.87h.01Z"/>
    </g>
  </g>
  <path class="st0" d="M172.42,203.19"/>
  <path class="st0" d="M172.01,203"/>
  <path class="st0" d="M309.4,291.77c-3.14-.77-6.15.76-8.18,3.73l-62.85-41.9c.68-2.1,1.13-4.4,1.27-6.87.51-8.98-3.08-17.25-8.5-20.92,3.16-9.99,11.82-43.11,25.97-99.35,4.05,0,7.64-4.3,8.38-10.45.84-6.91-2.25-13.53-6.88-14.78-4.94-1.33-9.08,4.73-9.92,10.25-.04.28-.98,7.02,2.69,11.72.14.17.34.43.6.71-12.72,56.74-19.98,90.52-21.77,101.32-1.14-.63-2.33-1.09-3.59-1.3-2.54-.42-4.98.17-7.13,1.51l-22.02-75.99c.97-1.64,1.64-3.65,1.88-5.91.74-6.94-2.8-13.58-7.92-14.84-5.11-1.26-9.86,3.34-10.6,10.28s2.8,13.58,7.92,14.84c.8.2,1.6.24,2.37.16l27.48,72.06c-3.08,2.32-5.48,6.28-6.63,11.2l-38.2-23.31c.02-6.91-3.58-12.96-8.37-13.78-5.06-.87-9.52,4.42-9.97,11.8s3.28,14.08,8.34,14.94c3.6.62,6.89-1.89,8.66-6.06l39.09,18.75c-.11.8-.21,1.61-.25,2.45-.52,9.17,3.22,17.62,8.84,21.16l-15.74,34.77c-3.93-1.14-8.3,1.83-10.41,7.47-2.46,6.56-.95,14.24,3.38,17.16,4.32,2.92,9.82-.04,12.28-6.6,1.96-5.22,1.39-11.14-1.09-14.81l13.6-37.46-.71.19c.92.43,1.88.74,2.87.91,2.83.47,5.53-.31,7.86-2.01l10.35,39.72c-2.3,2.34-3.87,5.97-3.67,10.3.34,7.62,3.98,12.43,8.91,12.42,4.93-.02,9.67-5.97,9.33-13.59s-3.58-11.97-8.51-11.95c-.59,0-1.18.09-1.76.24l-13.08-38.46c1.6-1.58,2.95-3.65,3.97-6.07l.59-1.34-.22-.51-.24,1.54c.18-.45.35-.92.51-1.39l-.63,1.56,60.99,48.16c-.41,6.91,3.01,13.3,7.92,14.51,5.11,1.26,9.89-3.59,10.66-10.83s-2.74-14.13-7.86-15.39v.04Z"/>
</svg>