<?xml version="1.0" encoding="UTF-8"?>
<svg id="Camada_2" xmlns="http://www.w3.org/2000/svg" version="1.1" viewBox="0 0 816 426">
  <!-- Generator: Adobe Illustrator 30.3.0, SVG Export Plug-In . SVG Version: 2.1.3 Build 182)  -->
  <defs>
    <style>
      .st0 {
        fill: #f7e40c;
      }

      .st1 {
        fill: #fff;
      }
    </style>
  </defs>
  <path d="M467.4,29.85"/>
  <path class="st1" d="M166.3,271.65"/>
  <path class="st1" d="M161.5,246.9"/>
  <g>
    <path class="st1" d="M186.95,130.95c-.28,1.13-.51,1.74-.79,2.85,26.82-.5,51.58,12.59,62.63,45.75l1.8,6.3c9.99,41-7.49,81.41-33.27,104.03l4.42,3.08c38.13-29.99,53.59-85.08,31.32-128.18-9.28-17.97-24.63-30.33-43.71-36.45-5.42-1.74-9.46-2.88-14.84-3.66-1.52,3.77-4.56,6.3-7.57,6.3v-.02Z"/>
    <path class="st1" d="M167.13,308.81c-.74.02-14.8-1.66-14.4-1.5,4.48,1.75,9.66,2.76,15.09,3.14.26-.61.55-1.19.88-1.73l-1.57.1h0Z"/>
    <path class="st1" d="M129.09,148.12c-.24,2.26-.76,3.61-1.72,5.25l.75,2.4c14.4-12.33,31.85-19.9,50.78-21.56.45-2.03.88-3.9,1.35-6-.47-.19-1.03-.73-1.16-.9-.78-1-1.42-2.01-1.84-3.11-19,1.84-34.41,9.09-48.26,20.96,0,.68.19,2.27.11,2.96h-.01Z"/>
    <path class="st1" d="M98.75,205.27l.23-.6c.66-2.77,1.15-4.12,1.37-4.91.1-.35.19-.7.31-1.05l3.28-9.83c.53-1.58,1.2-3.1,2.01-4.55l4.8-8.55c.08-.19.18-.37.28-.55,2.88-4.84,5.63-8.51,9.66-12.68l-1.39-3.82c-.86.38-.86.34-1.73.26-.35-.03-.87-.66-1.2-.79-10.77,13.25-17.64,27.64-19.88,45.49.74.39,1.61.95,2.25,1.57h.01Z"/>
    <path class="st1" d="M184.67,307.41c.42.69.54,1.49.84,2.36,7.51-1.07,14.05-3.1,19.73-6.07,3.45-1.81,5.93-3.48,9.13-5.65l-3.52-2.92c-8.75,6.61-16.83,10.53-26.18,12.28h0Z"/>
    <path class="st1" d="M167.06,320.01c-1.23-.13-1.34-.17-2.58-.38-9.13-1.5-16.06-3.78-23.63-7.16.18,2.23-.08,4.56-.77,6.84,2.73,1.33,4.46,2.16,7.42,3.21,8.22,2.92,13.96,4.35,22.6,4.74-1.79-1.57-2.42-4.01-3.04-7.26h0Z"/>
    <g>
      <path class="st1" d="M226.68,308.7l-6.19-4.73c-10.24,8.32-20.71,13.07-33.41,15.3-.62,3.35-1.55,6.14-3.6,7.88,16.8-1.1,29.53-6.36,42.97-16.2-.08-.9.17-1.32.23-2.25Z"/>
      <path class="st1" d="M238.89,294.86c1.35.33,2.69.95,3.77,1.97,32.6-33.51,43.58-86.51,22.76-129.02-1.84-1.43-4.85-2.02-7.23-2.68,11.01,27.19,10.79,56.6.5,84.16-6.68,17.89-16.58,34.38-30.38,47.48l1.63.96c2.04-2.97,5.8-3.64,8.94-2.87h.01Z"/>
    </g>
  </g>
  <path class="st1" d="M101.42,207.19"/>
  <path class="st1" d="M101.01,207"/>
  <g>
    <path class="st1" d="M554.31,268.57h2.79l4.53,7.47,4.53-7.47h2.79v15.8h-2.62v-11.33l-4.7,7.45h-.08l-4.66-7.4v11.28h-2.58v-15.8h0Z"/>
    <path class="st1" d="M573.47,268.57h2.62v15.8h-2.62v-15.8ZM576.15,263.99l2.34,1.08-2.72,2.19h-2l2.38-3.27Z"/>
    <path class="st1" d="M580.6,268.57h5.56c4.68,0,7.92,3.41,7.92,7.85v.05c0,4.45-3.24,7.9-7.92,7.9h-5.56v-15.8ZM583.22,271.1v10.74h2.94c3.13,0,5.17-2.23,5.17-5.33v-.04c0-3.09-2.04-5.37-5.17-5.37h-2.94Z"/>
    <path class="st1" d="M597.93,268.57h2.62v15.8h-2.62v-15.8Z"/>
    <path class="st1" d="M610.34,268.46h2.43l6.56,15.91h-2.77l-1.51-3.81h-7.04l-1.53,3.81h-2.68l6.56-15.91h-.02ZM614.09,278.09l-2.58-6.32-2.55,6.32h5.13,0Z"/>
    <path class="st1" d="M629.33,268.57h11.05v2.48h-8.43v4.11h7.47v2.51h-7.47v4.22h8.54v2.48h-11.15v-15.8h-.01Z"/>
    <path class="st1" d="M656.73,268.57l-5.19,7.72,5.41,8.08h-3.09l-3.94-6.03-3.92,6.03h-3l5.39-8.03-5.17-7.76h3.09l3.68,5.71,3.75-5.71h3,0Z"/>
    <path class="st1" d="M663.82,271.14h-4.75v-2.57h12.11v2.57h-4.75v13.22h-2.62v-13.22h.01Z"/>
    <path class="st1" d="M674.44,268.57h11.05v2.48h-8.43v4.11h7.47v2.51h-7.47v4.22h8.54v2.48h-11.15v-15.8h-.01Z"/>
    <path class="st1" d="M689.24,268.57h6.64c1.87,0,3.34.59,4.3,1.58.79.88,1.24,2.03,1.24,3.41v.04c0,2.59-1.47,4.15-3.53,4.78l4.02,5.98h-3.11l-3.66-5.51h-3.28v5.51h-2.62v-15.8h0ZM695.69,276.4c1.87,0,3.07-1.02,3.07-2.64v-.05c0-1.71-1.13-2.62-3.09-2.62h-3.81v5.3h3.83Z"/>
    <path class="st1" d="M705.31,268.57h2.62v15.8h-2.62v-15.8Z"/>
    <path class="st1" d="M711.78,276.51v-.04c0-4.42,3.24-8.17,7.81-8.17s7.77,3.68,7.77,8.12v.05c0,4.42-3.24,8.17-7.81,8.17s-7.77-3.68-7.77-8.12h0ZM724.62,276.51v-.04c0-3.07-2.09-5.6-5.07-5.6s-5.02,2.48-5.02,5.55v.05c0,3.07,2.09,5.6,5.07,5.6s5.02-2.48,5.02-5.55h0Z"/>
    <path class="st1" d="M731.07,268.57h6.64c1.87,0,3.34.59,4.3,1.58.79.88,1.24,2.03,1.24,3.41v.04c0,2.59-1.47,4.15-3.53,4.78l4.02,5.98h-3.11l-3.66-5.51h-3.28v5.51h-2.62v-15.8h0ZM737.52,276.4c1.87,0,3.07-1.02,3.07-2.64v-.05c0-1.71-1.13-2.62-3.09-2.62h-3.81v5.3h3.83Z"/>
  </g>
  <path class="st1" d="M381.57,222.84l-20.99,38.44-16.12.02-22.09-39.24c-.4-.71-1.36-.82-1.75-.89-.58-.11-2.02.61-2.03,1.73l-.08,38.37c-5.49.12-11.08.02-16.57.02.11-16.09.19-32.04.3-48.13.13-9.9,13.84-15.23,21.97-11.31,4.93,2.66,7.79,6.44,10.34,10.98l17.46,31.18,20.02-34.75c3.87-6.71,10.59-10.01,18.05-8.42,6.18,1.32,12.66,7.08,12.69,14.45l.23,46-17.18-.02-.11-36.68c0-1.25-.71-1.95-1.24-2.26-.58-.34-2.4-.43-2.9.5h0Z"/>
  <path class="st1" d="M552.21,261.38l-28.24-23.33-.19-14.02,26.49-22.1,22.49.22-33.04,28.53c12.43,10.21,24.86,20.41,37.28,30.62-8.26.03-16.52.05-24.79.08h0Z"/>
  <path class="st1" d="M516.36,261.3h-16.64c0-19.82.03-39.63.04-59.45l16.53.04c.02,19.8.04,39.61.06,59.41h.01Z"/>
  <path class="st1" d="M491.34,221.86c0-8.33-7.1-19.54-16.33-19.65l-64-.78.05,14.66,55.76.28c5.56.03,7.83,6.86,6.64,11.67-2.09-1.26-4.37-3.82-7.53-3.82l-46.93-.02c-4.94,0-8.55,4.59-8.51,9.32l.15,19.63c.04,4.62,3.89,8.15,8.91,8.15h46.46c2.95,0,4.67-1.29,7.28-3.51,0,.83.83,3.51,1.72,3.51h16.54l-.21-39.43h0ZM466.54,246.51l-36.28-.14c-1.73,0-2.24-2.61-2.24-3.6,0-1.18.59-4.01,2.49-4.01l35.9.04c1.8,0,3.32,2.08,3.68,3.16.46,1.36-.88,4.55-3.55,4.54h0Z"/>
  <path class="st1" d="M729.05,201.93c-.4-.02-.81-.03-1.22-.03l-44.36.22c-8.69.04-16.39,8.99-16.41,17.29l-.07,22.86c-.03,9.62,7.18,17.46,16.57,19.03.05,0,.1.01.15.01l49.07-.03c.09,0,.17-.01.26-.04,7.44-2.31,12.39-7.63,14.55-14.81l.04-24.31c0-10.54-8.05-19.63-18.57-20.19h0ZM724.35,245.9l-30.7.19c-4.5.03-8.66-3.06-8.96-7.82-.32-5.22-.85-10.52.27-15.8.67-3.15,5.41-6.07,8.59-6.08l28.05-.05c5.13,0,9.07,3.9,9.08,8.96v13.06c0,3.84-2.19,6.46-6.33,7.55h0Z"/>
  <path class="st1" d="M650.75,241.61c6.17-3.62,10.06-10.3,10.06-17.53v-3.26c0-10.8-8.45-19.71-19.31-20.29h-62.25v60.92h17.82v-44.79h41.76c2.29,0,4.16,1.87,4.16,4.16v3.26c0,2.29-1.87,4.16-4.16,4.16h-30.49v16.17h21.71l14.3,17.04h23.04l-16.65-19.84h0Z"/>
  <path class="st0" d="M238.4,295.77c-3.14-.77-6.15.76-8.18,3.73l-62.85-41.9c.68-2.1,1.13-4.4,1.27-6.87.51-8.98-3.08-17.25-8.5-20.92,3.16-9.99,11.82-43.11,25.97-99.35,4.05,0,7.64-4.3,8.38-10.45.84-6.91-2.25-13.53-6.88-14.78-4.94-1.33-9.08,4.73-9.92,10.25-.04.28-.98,7.02,2.69,11.72.14.17.34.43.6.71-12.72,56.74-19.98,90.52-21.77,101.32-1.14-.63-2.33-1.09-3.59-1.3-2.54-.42-4.98.17-7.13,1.51l-22.02-75.99c.97-1.64,1.64-3.65,1.88-5.91.74-6.94-2.8-13.58-7.92-14.84-5.11-1.26-9.86,3.34-10.6,10.28s2.8,13.58,7.92,14.84c.8.2,1.6.24,2.37.16l27.48,72.06c-3.08,2.32-5.48,6.28-6.63,11.2l-38.2-23.31c.02-6.91-3.58-12.96-8.37-13.78-5.06-.87-9.52,4.42-9.97,11.8s3.28,14.08,8.34,14.94c3.6.62,6.89-1.89,8.66-6.06l39.09,18.75c-.11.8-.21,1.61-.25,2.45-.52,9.17,3.22,17.62,8.84,21.16l-15.74,34.77c-3.93-1.14-8.3,1.83-10.41,7.47-2.46,6.56-.95,14.24,3.38,17.16,4.32,2.92,9.82-.04,12.28-6.6,1.96-5.22,1.39-11.14-1.09-14.81l13.6-37.46-.71.19c.92.43,1.88.74,2.87.91,2.83.47,5.53-.31,7.86-2.01l10.35,39.72c-2.3,2.34-3.87,5.97-3.67,10.3.34,7.62,3.98,12.43,8.91,12.42,4.93-.02,9.67-5.97,9.33-13.59s-3.58-11.97-8.51-11.95c-.59,0-1.18.09-1.76.24l-13.08-38.46c1.6-1.58,2.95-3.65,3.97-6.07l.59-1.34-.22-.51-.24,1.54c.18-.45.35-.92.51-1.39l-.63,1.56,60.99,48.16c-.41,6.91,3.01,13.3,7.92,14.51,5.11,1.26,9.89-3.59,10.66-10.83s-2.74-14.13-7.86-15.39v.04Z"/>
</svg>